<?xml version="1.0" encoding="utf-8"?>
<!-- Generator: Adobe Illustrator 15.0.0, SVG Export Plug-In  -->
<!DOCTYPE svg PUBLIC "-//W3C//DTD SVG 1.1//EN" "http://www.w3.org/Graphics/SVG/1.1/DTD/svg11.dtd" [
	<!ENTITY ns_flows "http://ns.adobe.com/Flows/1.0/">
]>
<svg version="1.1"
	 xmlns="http://www.w3.org/2000/svg" xmlns:xlink="http://www.w3.org/1999/xlink" xmlns:a="http://ns.adobe.com/AdobeSVGViewerExtensions/3.0/"
	 x="0px" y="0px" width="60px" height="60px" viewBox="0 0 60 60" overflow="visible" enable-background="new 0 0 60 60"
	 xml:space="preserve">
<defs>
</defs>
<path fill="#FFFFFF" d="M34.541,35.956c2.178,0.923,4.568,1.44,7.075,1.44C51.771,37.396,60,29.019,60,18.694S51.771,0,41.616,0
	C32.13,0,24.333,7.298,23.343,16.674c-0.734,0.119-1.477,0.168-2.212,0.151c-0.947-5.01-5.275-8.791-10.473-8.791
	C4.777,8.035,0,12.891,0,18.876c0,1.6,0.344,3.105,0.948,4.468c1.676,3.766,5.393,6.379,9.71,6.379
	c5.245,0,9.594-3.842,10.493-8.897c0.742,0,1.498,0.081,2.229,0.24c0.539,4.326,2.539,8.203,5.472,11.076
	c-0.361,1.214-0.89,2.382-1.546,3.464c-1.439-0.586-3.005-0.908-4.647-0.908c-6.873,0-12.431,5.66-12.431,12.648
	c0,2.809,0.9,5.393,2.418,7.496c1.594,2.209,3.895,3.872,6.557,4.662C20.3,59.816,21.464,60,22.66,60
	c6.87,0,12.438-5.668,12.438-12.654c0-3.445-1.346-6.562-3.545-8.84C32.424,37.521,33.42,36.654,34.541,35.956z"/>
</svg>
