<?xml version="1.0" encoding="utf-8"?>
<!-- Generator: Adobe Illustrator 15.0.0, SVG Export Plug-In  -->
<!DOCTYPE svg PUBLIC "-//W3C//DTD SVG 1.1//EN" "http://www.w3.org/Graphics/SVG/1.1/DTD/svg11.dtd" [
	<!ENTITY ns_flows "http://ns.adobe.com/Flows/1.0/">
]>
<svg version="1.1"
	 xmlns="http://www.w3.org/2000/svg" xmlns:xlink="http://www.w3.org/1999/xlink" xmlns:a="http://ns.adobe.com/AdobeSVGViewerExtensions/3.0/"
	 x="0px" y="0px" width="575px" height="540px" viewBox="20.578 6.304 575 540"
	 overflow="visible" enable-background="new 20.578 6.304 575 540" xml:space="preserve">
<defs>
</defs>
<line fill="none" stroke="#999999" stroke-width="8" stroke-miterlimit="10" x1="127.578" y1="399.304" x2="127.578" y2="443.304"/>
<line fill="none" stroke="#999999" stroke-width="10" stroke-miterlimit="10" x1="127.578" y1="221.304" x2="127.578" y2="269.304"/>
<line fill="none" stroke="#008563" stroke-width="12" stroke-miterlimit="10" x1="252.578" y1="120.304" x2="318.578" y2="120.304"/>
<line fill="none" stroke="#008563" stroke-width="12" stroke-miterlimit="10" x1="252.578" y1="485.304" x2="318.578" y2="485.304"/>
<line fill="none" stroke="#008563" stroke-width="12" stroke-miterlimit="10" x1="314.578" y1="114.304" x2="314.578" y2="491.304"/>
<line fill="none" stroke="#008563" stroke-width="12" stroke-miterlimit="10" x1="312.578" y1="303.304" x2="347.578" y2="303.304"/>
<path fill="#999795" d="M492.578,150.304c-31.756,0-57.5,25.744-57.5,57.5c0,24.969,15.919,46.212,38.158,54.156l74.707-69.67
	C541.17,168.073,518.956,150.304,492.578,150.304z"/>
<path fill="#878787" d="M473.236,261.959c6.046,2.16,12.555,3.344,19.342,3.344c31.756,0,57.5-25.744,57.5-57.5
	c0-5.378-0.754-10.577-2.135-15.514L473.236,261.959z"/>
<path fill="#999795" d="M593.578,288.304c0-6.627-5.373-12-12-12h-179c-6.627,0-12,5.373-12,12v107c0,6.627,5.373,12,12,12h74.802
	l116.198-94.838V288.304z"/>
<path fill="#878787" d="M477.38,407.304h104.198c6.627,0,12-5.373,12-12v-82.838L477.38,407.304z"/>
<rect x="497.578" y="422.304" fill="none" width="89" height="46"/>
<text transform="matrix(1 0 0 1 542.2852 422.3037)"><tspan x="0" y="0" fill="#878787" font-family="'Helvetica'" font-size="24">y</tspan><tspan x="11.996" y="0" fill="#878787" font-family="'Helvetica'" font-size="24">o</tspan><tspan x="25.337" y="0" fill="#878787" font-family="'Helvetica'" font-size="24">u</tspan></text>
<g>
	<g>
		<defs>
			<rect id="SVGID_5_" x="27.578" y="21.304" width="200" height="200"/>
		</defs>
		<clipPath id="SVGID_7_">
			<use xlink:href="#SVGID_5_"  overflow="visible"/>
		</clipPath>
		<g clip-path="url(#SVGID_7_)">
			<defs>
				<rect id="SVGID_6_" x="27.578" y="21.304" width="200" height="200"/>
			</defs>
			<clipPath id="SVGID_8_">
				<use xlink:href="#SVGID_6_"  overflow="visible"/>
			</clipPath>
			<path clip-path="url(#SVGID_8_)" fill="#F6002C" d="M127.578,21.304c-55.231,0-100,44.769-100,100
				c0,33.384,16.364,62.938,41.5,81.103l146.59-128.466C198.788,42.603,165.669,21.304,127.578,21.304"/>
			<path clip-path="url(#SVGID_8_)" fill="#FA3F60" d="M69.078,202.406c16.447,11.887,36.653,18.897,58.5,18.897
				c55.23,0,100-44.769,100-100c0-17.134-4.312-33.267-11.91-47.363L69.078,202.406z"/>
		</g>
		<g clip-path="url(#SVGID_7_)">
			<text transform="matrix(1 0 0 1 67.5781 86.3037)"><tspan x="0" y="0" fill="#FCFCFC" font-family="'Arial-BoldMT'" font-size="30" letter-spacing="-1">t</tspan><tspan x="8.19" y="0" fill="#FCFCFC" font-family="'Arial-BoldMT'" font-size="30" letter-spacing="-1">h</tspan><tspan x="24.746" y="0" fill="#FCFCFC" font-family="'Arial-BoldMT'" font-size="30">e</tspan></text>
		</g>
		<g clip-path="url(#SVGID_7_)">
			<text transform="matrix(1 0 0 1 67.5781 121.4937)"><tspan x="0" y="0" fill="#FCFCFC" font-family="'Arial-BoldMT'" font-size="30" letter-spacing="-1">b</tspan><tspan x="16.555" y="0" fill="#FCFCFC" font-family="'Arial-BoldMT'" font-size="30" letter-spacing="-1">a</tspan><tspan x="31.44" y="0" fill="#FCFCFC" font-family="'Arial-BoldMT'" font-size="30" letter-spacing="-1">dg</tspan><tspan x="64.55" y="0" fill="#FCFCFC" font-family="'Arial-BoldMT'" font-size="30" letter-spacing="-1">e</tspan><tspan x="79.435" y="0" fill="#FCFCFC" font-family="'Arial-BoldMT'" font-size="30">.</tspan></text>
		</g>
	</g>
</g>
<g>
	<g>
		<defs>
			<rect id="SVGID_3_" x="52.577" y="255.302" width="150" height="150"/>
		</defs>
		<clipPath id="SVGID_9_">
			<use xlink:href="#SVGID_3_"  overflow="visible"/>
		</clipPath>
		<g clip-path="url(#SVGID_9_)">
			<defs>
				<rect id="SVGID_4_" x="52.577" y="255.302" width="150" height="150"/>
			</defs>
			<clipPath id="SVGID_10_">
				<use xlink:href="#SVGID_4_"  overflow="visible"/>
			</clipPath>
			<path clip-path="url(#SVGID_10_)" fill="#FF9E00" d="M127.577,255.302c-41.423,0-75,33.577-75,75
				c0,25.038,12.273,47.204,31.125,60.827l109.942-96.349C180.984,271.276,156.145,255.302,127.577,255.302"/>
			<path clip-path="url(#SVGID_10_)" fill="#FFB640" d="M83.702,391.129c12.335,8.915,27.49,14.173,43.875,14.173
				c41.423,0,75-33.576,75-75c0-12.852-3.234-24.949-8.933-35.523L83.702,391.129z"/>
		</g>
		<g clip-path="url(#SVGID_9_)">
			<text transform="matrix(1 0 0 1 83.5229 309.6689)"><tspan x="0" y="0" fill="#FCFCFC" font-family="'Arial-BoldMT'" font-size="26" letter-spacing="-1">t</tspan><tspan x="7.098" y="0" fill="#FCFCFC" font-family="'Arial-BoldMT'" font-size="26" letter-spacing="-1">h</tspan><tspan x="21.446" y="0" fill="#FCFCFC" font-family="'Arial-BoldMT'" font-size="26">e</tspan></text>
		</g>
		<g clip-path="url(#SVGID_9_)">
			<text transform="matrix(1 0 0 1 83.5229 335.6172)"><tspan x="0" y="0" fill="#FCFCFC" font-family="'Arial-BoldMT'" font-size="26" letter-spacing="-1">pin</tspan><tspan x="34.385" y="0" fill="#FCFCFC" font-family="'Arial-BoldMT'" font-size="26">.</tspan></text>
		</g>
	</g>
</g>
<g>
	<g>
		<defs>
			<rect id="SVGID_1_" x="65.415" y="438.679" width="124.32" height="93.24"/>
		</defs>
		<clipPath id="SVGID_11_">
			<use xlink:href="#SVGID_1_"  overflow="visible"/>
		</clipPath>
		<g clip-path="url(#SVGID_11_)">
			<defs>
				<rect id="SVGID_2_" x="65.415" y="438.679" width="124.32" height="93.24"/>
			</defs>
			<clipPath id="SVGID_12_">
				<use xlink:href="#SVGID_2_"  overflow="visible"/>
			</clipPath>
			<path clip-path="url(#SVGID_12_)" fill="#BF8830" d="M189.735,446.29c0-4.204-3.425-7.611-7.651-7.611H73.065
				c-4.226,0-7.651,3.407-7.651,7.611v78.018c0,4.203,3.425,7.611,7.651,7.611h40.141l76.529-67.418V446.29z"/>
			<path clip-path="url(#SVGID_12_)" fill="#9B7645" d="M113.206,531.919h68.878c4.225,0,7.65-3.407,7.65-7.611v-59.807
				L113.206,531.919z"/>
		</g>
		<g clip-path="url(#SVGID_11_)">
			<text transform="matrix(1 0 0 1 87.7588 471.2305)"><tspan x="0" y="0" fill="#FCFCFC" font-family="'Arial-BoldMT'" font-size="16.1616">t</tspan><tspan x="4.412" y="0" fill="#FCFCFC" font-family="'Arial-BoldMT'" font-size="16.1616">h</tspan><tspan x="13.331" y="0" fill="#FCFCFC" font-family="'Arial-BoldMT'" font-size="16.1616">e</tspan></text>
		</g>
		<g clip-path="url(#SVGID_11_)">
			<text transform="matrix(1 0 0 1 87.7588 487.3604)"><tspan x="0" y="0" fill="#FCFCFC" font-family="'Arial-BoldMT'" font-size="16.1616">m</tspan><tspan x="13.4" y="0" fill="#FCFCFC" font-family="'Arial-BoldMT'" font-size="16.1616">odul</tspan><tspan x="43.693" y="0" fill="#FCFCFC" font-family="'Arial-BoldMT'" font-size="16.1616">e</tspan><tspan x="51.712" y="0" fill="#FCFCFC" font-family="'Arial-BoldMT'" font-size="16.1616">.</tspan></text>
		</g>
	</g>
</g>
<circle fill="none" cx="125.577" cy="120.306" r="100.001"/>
<text transform="matrix(0.516 -0.8566 0.8566 0.516 34.7188 77.2715)"><tspan x="0" y="0" fill="#FA3F60" font-family="'Helvetica'" font-size="36">e</tspan><tspan x="18.927" y="-0.103" fill="#FA3F60" font-family="'Helvetica'" font-size="36" rotate="10.744">a</tspan><tspan x="37.651" y="3.687" fill="#FA3F60" font-family="'Helvetica'" font-size="36" rotate="19.356">r</tspan><tspan x="48.258" y="7.018" fill="#FA3F60" font-family="'Helvetica'" font-size="36" rotate="28.021">n</tspan></text>
<path fill="none" d="M194.53,297.604c17.507,37.525,1.278,82.145-36.252,99.652c-37.528,17.508-82.145,1.277-99.653-36.25
	c-17.508-37.53-1.278-82.146,36.25-99.656C132.405,243.844,177.021,260.074,194.53,297.604z"/>
<text transform="matrix(0.2312 -0.9729 0.9729 0.2312 52.2207 317.7959)"><tspan x="0" y="0" fill="#FFB640" font-family="'Helvetica'" font-size="24">c</tspan><tspan x="11.366" y="-0.104" fill="#FFB640" font-family="'Helvetica'" font-size="24" rotate="9.12">o</tspan><tspan x="23.838" y="1.457" fill="#FFB640" font-family="'Helvetica'" font-size="24" rotate="21.138">m</tspan><tspan x="41.594" y="8.601" fill="#FFB640" font-family="'Helvetica'" font-size="24" rotate="33.259">p</tspan><tspan x="52.216" y="15.816" fill="#FFB640" font-family="'Helvetica'" font-size="24" rotate="40.056">l</tspan><tspan x="56.105" y="18.743" fill="#FFB640" font-family="'Helvetica'" font-size="24" rotate="46.818">e</tspan><tspan x="64.751" y="28.214" fill="#FFB640" font-family="'Helvetica'" font-size="24" rotate="53.96">t</tspan><tspan x="68.588" y="33.074" fill="#FFB640" font-family="'Helvetica'" font-size="24" rotate="61.189">e</tspan></text>
<rect x="64.578" y="440.304" fill="none" width="121" height="90"/>
<text transform="matrix(-4.371139e-08 -1 1 -4.371139e-08 64.5781 530.4248)"><tspan x="0" y="0" fill="#9B7645" font-family="'Helvetica'" font-size="21">s</tspan><tspan x="10.484" y="0" fill="#9B7645" font-family="'Helvetica'" font-size="21">t</tspan><tspan x="16.326" y="0" fill="#9B7645" font-family="'Helvetica'" font-size="21">u</tspan><tspan x="28.019" y="0" fill="#9B7645" font-family="'Helvetica'" font-size="21">d</tspan><tspan x="39.674" y="0" fill="#9B7645" font-family="'Helvetica'" font-size="21">y</tspan></text>
</svg>
