<?xml version="1.0" encoding="utf-8"?>
<!-- Generator: Adobe Illustrator 15.0.0, SVG Export Plug-In  -->
<!DOCTYPE svg PUBLIC "-//W3C//DTD SVG 1.1//EN" "http://www.w3.org/Graphics/SVG/1.1/DTD/svg11.dtd" [
	<!ENTITY ns_flows "http://ns.adobe.com/Flows/1.0/">
]>
<svg version="1.1"
	 xmlns="http://www.w3.org/2000/svg" xmlns:xlink="http://www.w3.org/1999/xlink" xmlns:a="http://ns.adobe.com/AdobeSVGViewerExtensions/3.0/"
	 x="0px" y="0px" width="800px" height="600px" viewBox="-94.422 -48.4 800 600"
	 overflow="visible" enable-background="new -94.422 -48.4 800 600" xml:space="preserve">
<defs>
</defs>
<line fill="none" stroke="#999999" stroke-width="8" stroke-miterlimit="10" x1="127.578" y1="94.6" x2="127.578" y2="138.6"/>
<line fill="none" stroke="#999999" stroke-width="10" stroke-miterlimit="10" x1="127.578" y1="281.6" x2="127.578" y2="329.6"/>
<line fill="none" stroke="#008563" stroke-width="12" stroke-miterlimit="10" x1="258.578" y1="52.6" x2="324.578" y2="52.6"/>
<line fill="none" stroke="#008563" stroke-width="12" stroke-miterlimit="10" x1="258.578" y1="417.6" x2="324.578" y2="417.6"/>
<line fill="none" stroke="#008563" stroke-width="12" stroke-miterlimit="10" x1="320.578" y1="46.6" x2="320.578" y2="423.6"/>
<line fill="none" stroke="#008563" stroke-width="12" stroke-miterlimit="10" x1="318.578" y1="235.6" x2="353.578" y2="235.6"/>
<path fill="#999795" d="M506.571,96.141c-31.755,0-57.498,25.733-57.498,57.476c0,24.958,15.918,46.192,38.157,54.133l74.704-69.641
	C555.161,113.902,532.947,96.141,506.571,96.141z"/>
<path fill="#878787" d="M487.23,207.75c6.045,2.159,12.554,3.343,19.341,3.343c31.754,0,57.498-25.733,57.498-57.476
	c0-5.376-0.754-10.573-2.135-15.508L487.23,207.75z"/>
<path fill="#999795" d="M607.578,234.083c0-6.626-5.384-12.483-12.01-12.483H416.575c-6.627,0-11.997,5.857-11.997,12.483v106.954
	c0,6.625,5.37,11.562,11.997,11.562h74.798l116.205-94.365V234.083z"/>
<path fill="#878787" d="M491.373,352.6h104.195c6.626,0,12.01-4.938,12.01-11.562v-82.803L491.373,352.6z"/>
<rect x="511.572" y="368.027" fill="none" width="88.995" height="45.98"/>
<text transform="matrix(1.0004 0 0 1 556.2749 368.0269)"><tspan x="0" y="0" fill="#878787" font-family="'Helvetica'" font-size="23.9899">y</tspan><tspan x="11.992" y="0" fill="#878787" font-family="'Helvetica'" font-size="23.9899">o</tspan><tspan x="25.327" y="0" fill="#878787" font-family="'Helvetica'" font-size="23.9899">u</tspan></text>
<g>
	<g>
		<defs>
			<rect id="SVGID_5_" x="27.587" y="322.148" width="199.992" height="199.916"/>
		</defs>
		<clipPath id="SVGID_7_">
			<use xlink:href="#SVGID_5_"  overflow="visible"/>
		</clipPath>
		<g clip-path="url(#SVGID_7_)">
			<defs>
				<rect id="SVGID_6_" x="27.587" y="322.148" width="199.992" height="199.916"/>
			</defs>
			<clipPath id="SVGID_8_">
				<use xlink:href="#SVGID_6_"  overflow="visible"/>
			</clipPath>
			<path clip-path="url(#SVGID_8_)" fill="#F6002C" d="M127.583,322.148c-55.229,0-99.996,44.75-99.996,99.958
				c0,33.37,16.363,62.912,41.499,81.069l146.584-128.412C198.79,343.438,165.672,322.148,127.583,322.148"/>
			<path clip-path="url(#SVGID_8_)" fill="#FA3F60" d="M69.085,503.174c16.446,11.882,36.651,18.889,58.498,18.889
				c55.228,0,99.996-44.75,99.996-99.957c0-17.127-4.312-33.254-11.91-47.343L69.085,503.174z"/>
		</g>
		<g clip-path="url(#SVGID_7_)">
			<text transform="matrix(1.0004 0 0 1 67.5854 387.1206)"><tspan x="0" y="0" fill="#FCFCFC" font-family="'Arial-BoldMT'" font-size="29.9874" letter-spacing="-1">t</tspan><tspan x="8.187" y="0" fill="#FCFCFC" font-family="'Arial-BoldMT'" font-size="29.9874" letter-spacing="-1">h</tspan><tspan x="24.735" y="0" fill="#FCFCFC" font-family="'Arial-BoldMT'" font-size="29.9874">e</tspan></text>
		</g>
		<g clip-path="url(#SVGID_7_)">
			<text transform="matrix(1.0004 0 0 1 67.5854 422.2964)"><tspan x="0" y="0" fill="#FCFCFC" font-family="'Arial-BoldMT'" font-size="29.9874" letter-spacing="-1">b</tspan><tspan x="16.548" y="0" fill="#FCFCFC" font-family="'Arial-BoldMT'" font-size="29.9874" letter-spacing="-1">a</tspan><tspan x="31.426" y="0" fill="#FCFCFC" font-family="'Arial-BoldMT'" font-size="29.9874" letter-spacing="-1">dg</tspan><tspan x="64.523" y="0" fill="#FCFCFC" font-family="'Arial-BoldMT'" font-size="29.9874" letter-spacing="-1">e</tspan><tspan x="79.401" y="0" fill="#FCFCFC" font-family="'Arial-BoldMT'" font-size="29.9874">.</tspan></text>
		</g>
	</g>
</g>
<path fill="none" d="M224.519,406.574c8.029,54.618-29.754,105.401-84.395,113.428c-54.639,8.028-105.442-29.743-113.473-84.36
	c-8.028-54.619,29.756-105.402,84.396-113.429C165.687,314.184,216.49,351.956,224.519,406.574z"/>
<text transform="matrix(0.5163 -0.8568 0.8565 0.5162 34.7036 378.1978)" fill="#FA3F60" font-family="'Helvetica'" font-size="35.9851">e</text>
<text transform="matrix(0.667 -0.7455 0.7453 0.6668 44.3823 361.938)" fill="#FA3F60" font-family="'Helvetica'" font-size="35.9851">a</text>
<text transform="matrix(0.7711 -0.6372 0.6371 0.7709 57.29 347.8579)" fill="#FA3F60" font-family="'Helvetica'" font-size="35.9851">r</text>
<text transform="matrix(0.8583 -0.5138 0.5137 0.858 65.6177 340.4956)" fill="#FA3F60" font-family="'Helvetica'" font-size="35.9851">n</text>
<g>
	<g>
		<defs>
			<rect id="SVGID_3_" x="52.083" y="133.132" width="149.994" height="149.937"/>
		</defs>
		<clipPath id="SVGID_9_">
			<use xlink:href="#SVGID_3_"  overflow="visible"/>
		</clipPath>
		<g clip-path="url(#SVGID_9_)">
			<defs>
				<rect id="SVGID_4_" x="52.083" y="133.132" width="149.994" height="149.937"/>
			</defs>
			<clipPath id="SVGID_10_">
				<use xlink:href="#SVGID_4_"  overflow="visible"/>
			</clipPath>
			<path clip-path="url(#SVGID_10_)" fill="#FF9E00" d="M127.08,133.132c-41.421,0-74.997,33.563-74.997,74.969
				c0,25.027,12.272,47.184,31.124,60.801l109.938-96.309C180.485,149.1,155.646,133.132,127.08,133.132"/>
			<path clip-path="url(#SVGID_10_)" fill="#FFB640" d="M83.207,268.902c12.334,8.911,27.489,14.167,43.873,14.167
				c41.421,0,74.997-33.562,74.997-74.968c0-12.846-3.233-24.939-8.933-35.508L83.207,268.902z"/>
		</g>
		<g clip-path="url(#SVGID_9_)">
			<text transform="matrix(1.0004 0 0 1 83.0278 187.4761)"><tspan x="0" y="0" fill="#FCFCFC" font-family="'Arial-BoldMT'" font-size="25.9891" letter-spacing="-1">t</tspan><tspan x="7.095" y="0" fill="#FCFCFC" font-family="'Arial-BoldMT'" font-size="25.9891" letter-spacing="-1">h</tspan><tspan x="21.437" y="0" fill="#FCFCFC" font-family="'Arial-BoldMT'" font-size="25.9891">e</tspan></text>
		</g>
		<g clip-path="url(#SVGID_9_)">
			<text transform="matrix(1.0004 0 0 1 83.0278 213.4136)"><tspan x="0" y="0" fill="#FCFCFC" font-family="'Arial-BoldMT'" font-size="25.9891" letter-spacing="-1">pin</tspan><tspan x="34.371" y="0" fill="#FCFCFC" font-family="'Arial-BoldMT'" font-size="25.9891">.</tspan></text>
		</g>
	</g>
</g>
<path fill="none" d="M194.027,175.415c17.506,37.51,1.278,82.109-36.25,99.609c-37.527,17.502-82.142,1.277-99.65-36.234
	c-17.507-37.516-1.278-82.112,36.249-99.614C131.904,121.676,176.518,137.899,194.027,175.415z"/>
<text transform="matrix(0.2313 -0.973 0.973 0.2314 51.7349 195.6543)" fill="#FFB640" font-family="'Helvetica'" font-size="23.9915">c</text>
<text transform="matrix(0.3826 -0.924 0.9241 0.3826 54.2617 184.5762)" fill="#FFB640" font-family="'Helvetica'" font-size="23.9915">o</text>
<text transform="matrix(0.5667 -0.8241 0.8242 0.5666 58.665 172.8086)" fill="#FFB640" font-family="'Helvetica'" font-size="23.9915">m</text>
<text transform="matrix(0.7271 -0.6868 0.6869 0.7269 69.7197 157.1919)" fill="#FFB640" font-family="'Helvetica'" font-size="23.9915">p</text>
<text transform="matrix(0.8034 -0.5959 0.596 0.8031 79.1943 148.5293)" fill="#FFB640" font-family="'Helvetica'" font-size="23.9915">l</text>
<text transform="matrix(0.8679 -0.4972 0.4973 0.8676 82.9409 145.4209)" fill="#FFB640" font-family="'Helvetica'" font-size="23.9915">e</text>
<text transform="matrix(0.9232 -0.3851 0.3852 0.9228 94.1802 139.1895)" fill="#FFB640" font-family="'Helvetica'" font-size="23.9915">t</text>
<text transform="matrix(0.9642 -0.2663 0.2665 0.9638 99.7686 136.5947)" fill="#FFB640" font-family="'Helvetica'" font-size="23.9915">e</text>
<g>
	<g>
		<defs>
			<rect id="SVGID_1_" x="64.841" y="0" width="124.315" height="93.201"/>
		</defs>
		<clipPath id="SVGID_11_">
			<use xlink:href="#SVGID_1_"  overflow="visible"/>
		</clipPath>
		<g clip-path="url(#SVGID_11_)">
			<defs>
				<rect id="SVGID_2_" x="64.841" y="0" width="124.315" height="93.201"/>
			</defs>
			<clipPath id="SVGID_12_">
				<use xlink:href="#SVGID_2_"  overflow="visible"/>
			</clipPath>
			<path clip-path="url(#SVGID_12_)" fill="#BF8830" d="M189.156,7.608c0-4.202-3.425-7.608-7.65-7.608H72.491
				c-4.226,0-7.65,3.406-7.65,7.608v77.984c0,4.202,3.425,7.608,7.65,7.608h40.14l76.525-67.39V7.608z"/>
			<path clip-path="url(#SVGID_12_)" fill="#9B7645" d="M112.631,93.201h68.875c4.225,0,7.65-3.406,7.65-7.608V25.812
				L112.631,93.201z"/>
		</g>
		<g clip-path="url(#SVGID_11_)">
			<text transform="matrix(1.0004 0 0 1 87.1846 32.5376)"><tspan x="0" y="0" fill="#FCFCFC" font-family="'Arial-BoldMT'" font-size="16.1548">t</tspan><tspan x="4.41" y="0" fill="#FCFCFC" font-family="'Arial-BoldMT'" font-size="16.1548">h</tspan><tspan x="13.325" y="0" fill="#FCFCFC" font-family="'Arial-BoldMT'" font-size="16.1548">e</tspan></text>
		</g>
		<g clip-path="url(#SVGID_11_)">
			<text transform="matrix(1.0004 0 0 1 87.1846 48.6602)"><tspan x="0" y="0" fill="#FCFCFC" font-family="'Arial-BoldMT'" font-size="16.1548">m</tspan><tspan x="13.395" y="0" fill="#FCFCFC" font-family="'Arial-BoldMT'" font-size="16.1548">odul</tspan><tspan x="43.675" y="0" fill="#FCFCFC" font-family="'Arial-BoldMT'" font-size="16.1548">e</tspan><tspan x="51.69" y="0" fill="#FCFCFC" font-family="'Arial-BoldMT'" font-size="16.1548">.</tspan></text>
		</g>
	</g>
</g>
<rect x="63.999" y="1.618" fill="none" width="120.995" height="89.962"/>
<text transform="matrix(-4.372800e-08 -1.0004 1 -4.371139e-08 63.998 91.7036)"><tspan x="0" y="0" fill="#9B7645" font-family="'Helvetica'" font-size="20.9912">s</tspan><tspan x="10.5" y="0" fill="#9B7645" font-family="'Helvetica'" font-size="20.9912">t</tspan><tspan x="16.342" y="0" fill="#9B7645" font-family="'Helvetica'" font-size="20.9912">u</tspan><tspan x="27.996" y="0" fill="#9B7645" font-family="'Helvetica'" font-size="20.9912">d</tspan><tspan x="39.674" y="0" fill="#9B7645" font-family="'Helvetica'" font-size="20.9912">y</tspan></text>
</svg>
