<?xml version="1.0" encoding="utf-8"?>
<!-- Generator: Adobe Illustrator 15.0.0, SVG Export Plug-In  -->
<!DOCTYPE svg PUBLIC "-//W3C//DTD SVG 1.1//EN" "http://www.w3.org/Graphics/SVG/1.1/DTD/svg11.dtd" [
	<!ENTITY ns_flows "http://ns.adobe.com/Flows/1.0/">
]>
<svg version="1.1"
	 xmlns="http://www.w3.org/2000/svg" xmlns:xlink="http://www.w3.org/1999/xlink" xmlns:a="http://ns.adobe.com/AdobeSVGViewerExtensions/3.0/"
	 x="0px" y="0px" width="135px" height="180px" viewBox="0 0.004 135 180"
	 overflow="visible" enable-background="new 0 0.004 135 180" xml:space="preserve">
<defs>
</defs>
<path fill="#6699FF" d="M68.19,0C47.116,0,30.03,18.059,30.03,40.335c0,17.515,10.564,32.417,25.325,37.989l49.581-48.872
	C100.439,12.464,85.695,0,68.19,0z"/>
<path fill="#336699" d="M55.355,78.324c4.011,1.515,8.332,2.346,12.835,2.346c21.075,0,38.161-18.058,38.161-40.335
	c0-3.773-0.499-7.419-1.416-10.883L55.355,78.324z"/>
<path fill="#6699FF" d="M135,96.804c0-4.648-3.347-9.8-7.743-9.8H8.462c-4.398,0-8.462,5.151-8.462,9.8v75.06
	c0,4.648,4.064,8.141,8.462,8.141h49.642L135,113.754V96.804z"/>
<path fill="#336699" d="M58.104,180.004h69.153c4.396,0,7.743-3.492,7.743-8.141v-58.109L58.104,180.004z"/>
</svg>
